<svg width="28" height="24" viewBox="0 0 28 24" fill="none" xmlns="http://www.w3.org/2000/svg">
<path d="M21.9739 14.0784L21.9499 14.1031C21.0392 17.7649 17.8277 20.4866 13.993 20.4866C9.46329 20.4866 5.79638 16.701 5.79638 12.0247C5.79638 7.34845 9.46329 3.56289 13.993 3.56289C18.331 3.56289 21.8541 7.0268 22.1656 11.4062C23.1483 10.6639 24.1309 9.74845 25.1375 8.63505C23.7235 3.63711 19.2657 0 13.993 0C7.56992 0 2.36914 5.36907 2.36914 12C2.36914 18.6309 7.56992 24 13.993 24C20.4161 24 25.6168 18.6309 25.6168 12C25.6168 11.5299 25.5929 11.0845 25.5449 10.6392C24.5383 11.9258 23.364 13.0887 21.9739 14.0784Z" fill="black"/>
<path d="M5.9169 11.8022C2.99296 9.64959 1.02769 7.00217 0.0210907 3.8599C-0.0508094 3.66196 0.0690241 3.43928 0.260758 3.36506C0.428525 3.29083 0.644225 3.36506 0.740092 3.51351C2.60949 6.40836 4.67063 8.53619 6.94747 9.92176C9.03257 11.1589 11.3813 11.7774 13.9697 11.7774C16.4862 11.7774 18.811 11.1341 20.968 9.87227C23.0771 8.6599 25.1622 6.53207 27.2712 3.53825C27.3671 3.3898 27.5588 3.31557 27.7506 3.3898C27.9423 3.46403 28.0621 3.71145 27.9663 3.90939C26.744 7.12588 24.7787 9.74856 22.0225 11.7279C19.6977 13.4352 17.0135 14.3011 13.9697 14.3011C10.9259 14.3011 8.26563 13.4846 5.9169 11.8022Z" fill="#3AACFF"/>
</svg>
